<svg width="547" height="593" fill="none" xmlns="http://www.w3.org/2000/svg"><path fill-rule="evenodd" clip-rule="evenodd" d="M228.042 362.043c-1.12 1.859-.395 4.87-.099 6.861-.27-4.884 3.092-10.383 4.902-14.733 1.761-4.233 3.229-8.601 4.275-13.073.024-.098 2.231-10.081-1.014-8.174-9.022 5.247-3.201 21.775-8.064 29.119Zm-3.884-75.648c2.737 3.602 16.551 20.552 21.557 14.957 3.984-4.454-4.21-15.127-7.643-17.519-5.717-3.977-11.848-7.227-17.328-11.587.614 5.099.117 9.843 3.414 14.149Zm145.655 2.874c4.413-.658 8.839-1.344 13.193-2.323-5.054.745-10.05 1.353-15.007 2.619l1.815-.297-.001.001Zm-233.811 81.255c-.925-2.335 4.225-6.287 5.436-7.573 3.323-3.53 6.741-7.454 7.331-12.125 1.084-3.665-7.496-1.76-10.088-2.199-1.818-.308-6.275-1.343-7.206-3.218-1.994-4.018 4.407-6.189 7.2-7.503 4.092-1.922 6.296-2.416 1.946-4.233-4.677-1.953-14.641-1.713-15.758-8.564-.952-5.836 8.832-8.259 12.716-9.153 7.317-1.69 13.839-.63 20.709 2.143 1.602.645 11.307 4.073 10.659 1.672-2.069-5.25-9.094-6.206-11.831-11.003-1.555-2.726-1.628-5.259-3.604-7.945-1.95-2.652-5.961-6.535-4.117-10.303 1.171-2.39 3.95-2.785 6.055-2.052 5.121 1.408 8.563 4.654 13.078 7.214 3.305 1.873 7.035 1.171 9.927 3.957 4.367 4.318 8.752 9.175 13.579 13.198 1.513 1.261 8.588 6.685 9.037 2.523.253-2.344-6.992-6.362-8.171-7.228-2.816-2.069-5.832-3.788-7.359-7.125-.876-1.912-.435-3.966-1.13-5.454-2.058-4.397-8.003-7.69-10.643-11.877-2.369-3.756-7.879-13.256-6.283-17.8 2.185-6.221 8.518.342 11.623 2.665 3.438 2.573 6.425 5.17 10.204 6.96 3.335 1.582 5.767 3.324 8.124 6.354 4.356 5.599 7.258 11.875 10.759 17.769a.583.583 0 0 1-.046-.055c2.098 3.387 5.082 6.937 8.683 8.862 6.038 3.227 4.245-.585 1.295-4.743-4.446-6.271-9.867-11.848-14.331-18.086-1.59-2.222-3.101-4.653-3.332-7.465-.154-1.887 1.047-3.4 1.088-4.77.146-4.764-14.444-31.233-4.478-32.851 5.381-.873 8.688 11.133 10.458 14.297 2.827 5.054 4.227 9.472 9.493 12.237-.492-2.259 1.4-3.85 1.112-5.819-.343-2.34-2.794-4.387-4.13-6.177-3.673-4.92-7.057-10.158-9.38-15.836-7.086-17.326 11.361-4.228 17.203.521 1.12.912 2.564 2.055 3.85 3.074 3.379 2.666 4.481 2.163 8.039 3.553 6.052 2.366 9.488 13.189 11.454 18.895.609 1.76 10.972 29.49 14.956 22.366 2.01-3.592-4.52-15.501-6.631-18.977-3.247-5.344-11.702-12.689-11.046-19.422.206-2.115 1.828-3.004 2.126-4.901.699-4.428-3.474-10.176-4.566-14.322-2.223-8.439 2.355-14.493 8.414-4.955 2.397 3.775 4.174 5.995 7.273 9.274 3.535 3.74 3.454 8.888 6.139 12.863 2.219 3.285 1.915.032 5.508 2.33 2.983 1.91 3.521 8.612 3.9 11.842.527 4.484.178 23.094 6.555 23.169 5.814.069 4.074-11.927 3.368-15.277-1.765-8.379-7.206-14.515-11.847-21.382-2.263-3.346-5.07-7.305-6.172-11.248-.965-3.456.168-6.071.582-9.403.484-3.88 1.374-21.71 9.644-15.983 5.557 3.848 3.583 13.606 8.527 17.889.531-4.6-2.334-16.575 4.105-18.63 6.216-1.983 9.378 11.098 10.933 15.432.953 2.659 3.089 18.272 6.351 19.956 3.406 1.757 4.482-2.759 5.348-5.224 1.483-4.214 13.14-42.912 19.929-38.703 5.266 3.263-4.216 15.193-2.183 18.657.746 1.273 2.082.249 3.409.711 4.861 1.696 5.746 4.164 3.522 9.018 12.956 1.79-1.049 12.912-5.562 16.767-3.074 2.625-16.463 13.613-10.018 18.725 2.167 1.718 8.221-.044 10.927.644 5.221 1.329 6.019 6.217 1.971 9.63-2.783 2.349-6.989 3.493-10.536 3.961-2.035.271-7.754-.503-9.147 1.13 7.645 4.267 1.147 6.37-4.465 8.475-4.197 1.574-15.204 5.17-15.222 11.181 6.91-.637 13.59-3.136 20.42-4.255 7.481-1.222 14.73-2.81 22.314-4.835 14.381-3.842 29.582-7.228 44.261-9.413 7.179-1.069 14.322-2.599 21.424-4.096 2.561-.542 15.666-5.696 16.717-.559 1.422 6.949-18.721 5.667-22.425 7.842-26.542 5.068-52.799 11.668-79.397 16.066 2.37.571 7.634 4.585 5.742 7.567 2.073.257 5.857-.407 7.451 1.207 3.525 3.573-1.241 3.045-1.923 4.759-1.165 2.931 4.966 3.579 7.228 4.244 10.541 3.097 20.821 8.577 30.61 13.549 5.37 2.729 17.127 15.546 6.644 19.287-5.232 1.868-13.12-2.275-17.549-4.573-2.795-1.449-9.578-7.122-13.031-6.623-.196 4.083 4.99 12.182 6.456 15.743 3.104 7.53 4.479 13.329.621 20.953-9.167 18.115-16.471-14.685-19.04-13.362-1.807.931.763 16.222.993 18.179.508 4.338.676 16.737-5.962 17.335-5.568.501-7.869-10.544-9.128-14.161-1.055-3.034-3.157-6.075-3.962-9.568-.662-2.873-.201-5.927-.79-8.733-.612-2.918-3.04-4.499-3.773-7.783-.825-3.685-.78-8.007-1.265-11.813-.808-6.362-1.563-15.134-7.407-19.272-4.653 10.696 2.162 23.898 4.439 34.42 1.138 5.262 2.811 11.654-1.173 15.951-1.601 1.725-.734-.622-2.483 1.921-.392.57-.52 1.581-.726 2.237-1.47 4.705-2.303 9.551-3.647 14.284-.833 2.936-2.679 12.843-6.467 13.68-6.869 1.518-7.458-22.886-8.063-27.495-.455-3.486-.355-7.297-.961-10.691-.556-3.115-2.516-5.209-2.182-8.76.432-4.598 2.322-9.125 3.266-13.627 1.27-6.055 1.242-11.737.499-17.84-.308-2.528-.688-8.447-3.644-8.96-4.751-.823-3.702 8.729-3.748 11.232-.132 7.415 1.816 15.578-.172 23.671-2.054 8.373 2.764 16.14 2.02 24.527-.27 3.03-.948 4.424-2.88 6.646-2.145 2.474-3.244 3.598-4.341 7.345-.994 3.396-4.789 20.373-10.785 15.372-1.946-1.622-.988-5.271-.932-7.375.121-4.635-.017-9.288.217-13.919.149-2.941 1.023-6.275.282-9.192-.703-2.766-2.236-4.196-1.883-7.371.475-4.274 3.72-9.207 3.412-13.378-.292-3.977-1.789-7.868-1.69-12.166.081-3.419 3.301-21.162.662-22.182-5.364-2.076-5.715 19.839-5.776 21.506-.387 10.629.775 21.963.007 32.656-.259 3.594-2.047 5.445-3.183 8.226-1.51 3.694-1.276 8.621-2.508 12.549-.982 3.132-3.552 11.32-7.507 7.092-2.858-3.054-1.949-11.396-2.416-15.383-.525-4.508-1.372-8.916-1.381-13.467-.003-.979.397-2.898.117-3.78-.783-2.443-3.871-2.954-4.684-5.816.685 2.906.528 5.28-.934 7.812-.38.662-1.832 1.513-2.421 2.277-1.782 2.306-2.68 5.729-3.871 8.389-1.676 3.732-12.601 21.082-13.409 8.347-.345-5.443.234-10.994 1.019-16.365.616-4.221 2.224-9.276 1.58-13.52-.669-4.399-1.598-5.681.311-10.375 1.962-4.824 5.789-11.004 4.654-16.377-2.315-10.945-11.919 15.29-12.771 18.18-1.72 5.838-3.961 11.925-8.177 16.444-4.699 5.039-10.277 8.218-14.154 14.147-1.727 2.645-6.707 11.71-10.974 8.982-4.202-2.686 1.394-12.81 2.425-15.764 1.067-3.051 2.713-6.263 3.464-9.357.681-2.809.221-5.531.697-8.378 1.347-8.074 7.885-11.75 11.455-18.487 1.884-3.556 1.499-6.009-3.107-3.848-2.488 1.165-4.465 4.227-6.471 6.147-3.016 2.889-6.267 5.566-9.407 8.322-4.24 3.718-27.646 24.827-32.09 13.496Z" fill="#89B99A"/><path fill-rule="evenodd" clip-rule="evenodd" d="M415.366 432.032c-17.642-31.004-41.305-59.711-64.071-87.056 6.726 1.841 15.603.406 21.735-2.645 6.89-3.427 10.378-9.389 13.165-16.278.396-.977 2.985-11.05 4.876-10.507 3.481 1.001 4.484 23.21 4.86 25.924 1.339 9.69 3.409 19.182 5.579 28.717 4.681 20.552 9.77 41.162 13.856 61.845Zm-75.344-105.244c-4.92.345-8.638-6.613-11.811-10.206 5.313-.206 27.982-6.476 30.691-1.064 4.402 8.804-14.396 10.944-18.88 11.27Zm-110.617-167.82c-.021 2.937-.022 14.269-4.603 10.755-3.1-2.38-4.79-13.039-5.751-16.308-1.961-6.662-4.974-14.869-4.63-21.899.652-13.306 9.381-4.228 11.372 2.87 2.197 7.826 3.648 16.425 3.612 24.582Zm35.005 58.29c5.79-3.628 3.466 3.143 1.29 6.372-6.121 9.086-7.474-1.439-1.29-6.372Zm-13.039-31.118c-1.225-6.601-.617-15.559 1.268-21.87 1.48-4.957 6.215-9.574 9.119-3.24 2.412 5.258-2.15 19.08-4.582 24.253-1.977 4.207-4.693 7.782-5.805.857Zm-25.149 2.023c1.083 12.667-9.945 17.304-9.583 2.841.223-8.848 7.648-15.384 9.583-2.841Zm23.318 76.344c.34 5.256-10.707 23.647-11.503 13.499-.228-2.894 10.916-18.237 11.503-13.499Zm-32.395-17.729c-3.78 2.45-14.162 10.637-18.091 8.981-6.279-2.649.89-10.071 3.68-11.981 3.048-2.087 11.401-7.197 15.602-6.556 7.705 1.18 2.705 6.785-1.191 9.556Zm-56.753-75.748c-9.373 3.995-12.669-7.165-14.692-13.829-1.323-4.36-5.999-13.475-1.088-16.587 8.827-5.6 18.678 23.191 15.78 30.416Zm31.066 1.314c-1.431-4.473-2.547-9.041-3.949-13.521-.834-2.664-5.2-12.046-4.674-14.276 1.664-7.075 7.379-3.542 10.702 1.645 3.41 5.325 6.975 16.434 6.616 22.544-.333 5.667-5.624 12.252-8.695 3.608Zm-17.289-47.03c-2.46-7.779 2.859-14.32 8.957-5.652 6.9 9.802-3.584 20.165-8.957 5.652Zm13.491 137.512c.357 7.115-23.763 17.84-29.216 14.563-7.177-4.314 7.563-9.682 11.661-11.813 3.462-1.796 16.545-10.906 17.555-2.75Zm-42.752-10.607c-6.121 1.723-12.396 4.117-18.692 4.981-8.648 1.184-8.574-3.669-2.104-8.768 5.655-4.456 16.23-5.533 22.978-8.23 5.391-2.157 21.028-14.506 24.93-10.682 8.792 8.616-21.333 21.015-27.112 22.699Zm1.633 27.729c.244 9.672-25.368 12.912-31.096 13.477 3.843-2.734 29.344-26.814 31.096-13.477Zm-48.47-48.768c-17.358-.578.081-13.215 5.932-15.549 4.246-1.697 14.239-5.465 18.559-1.913 11.335 9.324-20.026 17.632-24.49 17.462Zm1.971-35.347c.398-5.997 29.287-15.032 30.92-9.544 1.285 4.32-29.534 22.125-30.92 9.544Zm41.559 7.233c11.461-7.852 26.977-.473 9.794 8.631-3.372 1.784-12.198 6.603-15.938 3.856-5.283-3.879 3.109-10.529 6.144-12.487Zm316.164 26.398c-2.841-5.03-6.932-12.056-11.637-7.313-1.829 1.84-3.713 9.526-4.95 12.412-4.336 10.101-8.943 21.379-18.082 28.145-5.47 4.049-24.532 10.586-19.749-1.771 4.077-10.542 17.587-19.876 25.733-27.523 3.777-3.546 12.741-10.824 14.707-15.968 1.498-3.922-2.107-13.151-8.577-11.067-2.937.947-3.317 9.531-4.391 11.976-1.699 3.86-4.698 6.885-7.349 10.093-4.202 5.087-8.645 12.545-15.237 14.942-7.926 2.885-10.375-1.756-6.3-8.874 3.986-6.955 12.992-11.434 18.501-17.144 2.741-2.842 11.373-11.154 9.278-15.403-4.565-9.251-10.94 4.283-13.209 7.033-1.778 2.152-12.567 16.042-15.934 13.389-4.047-3.188 5.016-16.029 6.685-18.772 3.52-5.789 5.059-5.464.602-8.556-2.546-1.77-7.852-3.287-10.666-2.887-6.907.98-13.974 7.355-21.094 9.045-2.947.701-12.987.544-14.203 5.056-1.874 6.945 28.329 23.59 12.416 27.379-12.3 2.923-23.863-16.124-33.973-8.288-15.979 12.387 9.394 19.924 19.14 22.492 4.371 1.154 18.762 1.653 16.66 9.381-1.711 6.283-13.644 4.897-18.243 4.125-8.715-1.458-16.604-5.678-24.753-8.812-2.198-.844-11.036-5.639-13.687-4.607-3.796 1.485-8.396 16.309-6.185 19.804 2.726 4.304 17.705 2.802 22.769 2.913 8.558.181 19.052-.128 26.344 5.203 8.052 5.883-1.901 6.801-7.401 6.564-11.868-.516-23.982-4.714-35.611-6.988-4.056-.797-10.096-2.958-14.126-2.404-6.103.843-4.817 1.266-2.308 6.25 5.596 11.124 11.278 12.375 23.658 13.238 5.647.391 30.354-2.859 32.297 4.676-6.071 4.779-20.795 2.165-27.959 2.064-5.242-.076-13.739 1.132-18.296-1.401-6.205-3.459-14.053-16.352-18.602-21.527-8.069-9.179-16.012-18.312-24.844-26.794 9.637 1.367 18.662 4.421 28.425 2.009 10.672-2.639 20.901-9.769 22.477-21.24.576-4.198-.124-8.506-.423-12.692-.098-1.336-.033-2.711-.193-4.045-.699-5.798-.216-7.686-4.2-3.49-4.533 4.775-7.68 15.646-15.474 17.667-8.629 2.241-4.001-4.226-.493-8.002 8.663-9.325 18.139-17.438 19.573-31.245.782-7.53.344-15.793-1.017-23.303-1.309-7.217-2.613-6.998-5.052-1.085-5.295 12.825-13.55 23.391-24.524 31.967-2.103 1.646-6.82 5.67-9.995 3.392-2.874-2.06-.786-5.957-.004-8.903 1.722-6.507 4.204-12.539 6.649-18.794 3.22-8.24 8.823-19.356 9.051-28.23.15-5.763-4.52-8.238-8.643-11.849-4.822-4.225-9.148-8.725-12.888-13.946-2.607-3.636-5.416-9.091-9.341-11.481-6.093-3.71-4.728.919-4.268 5.549.368 3.699 5.717 40.23-2.95 38.353-8.601-1.86-4.98-36.241-6.173-43.788-1.583-9.998-15.467-8.64-23.868-10.466-4.431-.966-8.49-1.47-12.692-3.105-1.591-.618-3.395-3.316-5.182-2.503-4.06 1.844 12.311 16.88 8.057 22.208-7.182 8.997-14.428-14.762-16.484-19.096-1.728-3.645-3.792-7.914-6.214-11.083-3.744-4.892-4.25-3.711-9.76-2.071-5.511 1.64-18.671 1.5-22.833 5.142-4.023 3.524 1.111 6.11 3.899 9.313 2.641 3.032 11.199 13.322 3.986 15.454-2.605.77-12.058-6.922-14.506-8.504-5.198-3.36-4.077-2.595-8.441-1.493-5.071 1.277-10.779 2.917-15.658 4.645-6.118 2.168-7.574 3.196-2.989 7.58 5.377 5.134 13.428 8.227 16.076 15.574 1.288 3.173.44 6.722-3.567 6.785-4.276.069-6.221-5.766-7.866-8.894-2.084-3.958-5.996-13.268-11.07-14.099-3.171-.52-7.083 3.309-9.765 4.699-1.588.822-8.739 2.957-9.315 5.163-.632 2.423 7.616 7.674 9.853 10.257 5.706 6.59 11.77 14.732 13.928 22.663 1.666 12.948-13.326-2.785-15.689-6.712-2.622-4.354-11.036-26.865-18.569-24.585-2.05.621-3.318 5.619-4.996 7.255-2.057 2.004-4.696 2.81-7.165 4.054-3.659 1.845-7.321 3.689-10.828 5.776-1.084.644-4.03 2.517-4.617 2.941-.442.322-1.42.11-1.958.514-3.668 2.763-5.38 8.35-8.727 11.709-1.5 1.508-8.176 5.624-7.685 7.759.447 1.946 32.224 3.472 36.985 4 3.62.4 18.821-.234 20.677 3.303 1.815 3.46-1.257 4.678-4.246 5.824-7.42 2.843-16.768 3.516-24.576 4.913-5.516.986-28.104 2.391-31.03 7.873-3.022 5.66.652 9.535 4.867 10.312 4.614.853 11.279-1.095 15.788-1.746 3.674-.53 27.12-6.34 28.326-.933 1.31 5.881-26.72 10.816-29.496 11.563-5.303 1.426-14.252 1.681-18.932 4.406-4.194 2.447-2.627 2.731-1.462 6.748 4.025 13.882 5.455 11.169 17.728 8.049 4.7-1.195 10.734-3.33 15.217-.754 5.357 3.072 5.066 6.921.276 9.572-3.292 1.824-10.163 2.254-13.85 2.792-4.308.631-8.675.849-13.024.897-1.279.016-6.874-.914-8.092-.091-4.786 3.23 6.79 20.055 11.788 20.71 2.426.319 6.368-1.335 8.776-1.801 8.415-1.639 16.973-2.508 25.42-4.066 4.756-.876 27.025-7.388 23.035 4.147-2.205 6.372-18.314 9.584-23.657 11.404a233.342 233.342 0 0 1-15.545 4.706c-4.905 1.3-7.761.767-4.495 6.194 3.325 5.523 23.13 22.373 29.347 21.839 5.101-.44 3.206-2.8 8.93.604 2.101 1.253 4.231 3.314 6.054 4.935 6.999 6.215 14.193 15.182 23.965 16.921 20.887 3.718 49.41-24.227 62.895-37.208 2.68-2.578 12.92-15.227 17.904-12.4 5.238 2.969-3.849 14.779-5.655 17.046-10.057 12.64-22.591 24.773-37.484 31.348-3.967 1.75-15.081 3.43-18.84 6.522-3.728 3.064.085 4.051 4.043 6.658 8.44 5.554 19.721 13.747 30.095 10.343 13.657-4.483 20.986-18.807 28.623-30.051 4.237-6.235 24.088-35.691 24.35-12.594.128 11.498-7.158 24.66-14.995 32.567-1.465 1.476-10.939 6.198-10.74 7.32.303 1.704 5.982 2.436 7.019 2.658 10.052 2.162 40.244 5.108 44.477-7.835 2.905-8.879-.634-23.069-1.883-31.998-.389-2.775-2.331-7.232 1.656-8.115 5.106-1.131 9.483 16.709 9.866 19.536.787 5.813-.089 11.869-2.292 17.865-.968 2.634-3.622 4.987-.16 5.399 1.255.148 8.277-6.536 9.377-7.652 5.601-5.7 5.981-12.12 5.523-19.677-1.245-20.393-10.731-40.274-21.764-57.234 13.193 13.684 25.781 27.852 37.962 42.447 3.044 3.647 5.184 8.108 8.187 11.629 4.333 5.073 9.667 9.2 14.175 14.618-1.328-.134-12.82-3.23-13.153-.099-.302 2.849 9.445 7.262 11.442 8.317 8.988 4.76 12.525 5.177 19.592 13.796 17.584 21.456 33.65 43.7 49.386 66.522 7.692 11.154 15.792 22.144 22.564 33.892 3.397 5.892 6.124 12.182 8.708 18.466 1.777 4.32 4.008 17.364 9.547 18.749 6.438 1.613 4.861-5.474 3.553-8.813-2.949-7.528-5.093-14.856-7.192-22.713-3.413-12.78-5.983-25.767-9.713-38.473-4.655-15.856-8.489-31.842-12.328-47.907-2.492-10.427-4.634-21.029-6.237-31.634-1.102-7.283-.826-15.083-2.779-22.22 7.609 6.857 6.128 19.247 18.833 20.132 9.819.686 16.914-7.239 22.531-14.232 4.58-5.703 11.164-14.322 12.053-21.815 1.06-8.941-6.433-2.546-12.017-.609-3.604 1.252-13.54 6.968-16.505 3.555-4.147-4.776 10.653-10.983 13.514-12.801 6.294-3.997 13.273-8.853 18.067-14.709 1.893-2.316 9.736-27.453 1.034-24.038-1.104.433-2.642 3.947-3.532 5.183-4.131 5.73-8.823 10.9-13.887 15.812-5.52 5.351-17.57 17.944-26.774 15.217 3.731-11.294 19.349-17.181 27.791-24.586 5.426-4.757 10.123-10.011 13.349-16.531 1.603-3.244 5.68-12.331 3.724-15.779Z" fill="#02362C"/></svg>