<svg width="313" height="287" fill="none" xmlns="http://www.w3.org/2000/svg"><path fill-rule="evenodd" clip-rule="evenodd" d="M236.395 136.146c2.711-.024 5.49 2.673 7.444 4.259-5.083-3.399-13.132-3.277-18.961-4.095-5.671-.798-11.301-1.995-16.776-3.715-.12-.035-12.26-4.011-8.149-6.294 11.372-6.379 25.455 10.409 36.442 9.845Zm-78.906-52.324c2.136 5.242 11.599 30.907 2.403 32.739-7.32 1.458-13.599-14.161-13.993-19.38-.649-8.69-.252-17.362-1.463-26.04 5.095 3.906 10.513 6.39 13.053 12.681Zm-89.378 158.73c-3.51 4.335-7.056 8.667-10.874 12.733 4.01-4.969 7.836-9.964 12.345-14.499l-1.472 1.766h.001ZM303.95 42.395c-1.924-2.482-9.444.55-11.597 1.037-5.906 1.333-12.298 2.517-17.696.18-4.631-1.163 2.865-9.193 4.038-12.266.823-2.153 2.539-7.614 1.113-9.81-3.056-4.704-9.455.81-12.641 2.983-4.665 3.184-6.596 5.245-5.789-.599.869-6.28 7.452-16.86.792-22.424-5.674-4.738-14.491 4.259-17.918 7.874-6.464 6.807-9.464 14.506-10.842 23.671-.323 2.137-2.797 14.772-4.969 12.546-4.333-5.569-.903-13.745-4.324-19.746-1.946-3.41-4.624-5.1-6.259-8.938-1.615-3.788-3.245-10.58-8.468-10.991-3.315-.26-5.504 2.483-6.052 5.217-1.737 6.412-.43 12.185-.542 18.678-.084 4.751-3.207 8.324-2.046 13.212 1.872 7.451 4.313 15.266 5.577 23.026.396 2.432 1.738 13.504-3.025 11.34-2.681-1.22-2.404-11.58-2.587-13.401-.437-4.351-.372-8.693-2.992-12.462-1.501-2.16-3.991-2.992-5.15-4.688-3.423-5.014-3.191-13.515-6.018-19.023-2.537-4.942-9.258-16.922-15.159-18.094-8.079-1.606-5.04 9.392-4.513 14.216.586 5.34 1.483 10.21 1.009 15.42-.415 4.6-.085 8.328 1.678 12.795 3.258 8.256 8.165 15.375 12.283 22.896a.63.63 0 0 0-.03-.084c2.312 4.415 4.236 9.89 4.02 14.994-.362 8.557-3.323 4.2-5.924-1.624-3.923-8.78-6.48-18.168-10.356-26.946-1.38-3.127-3.036-6.301-5.915-8.34-1.932-1.367-4.322-1.036-5.821-1.864-5.218-2.873-24.428-35.434-32.494-25.728-4.356 5.24 6.459 16.443 8.739 20.363 3.641 6.262 7.505 10.582 7.136 18.013-2.117-1.967-5.029-.942-6.964-2.504-2.301-1.86-2.946-5.802-4.023-8.38-2.961-7.088-6.447-14.067-11.08-20.182-14.138-18.658-11.76 9.548-10.36 18.863.269 1.787.583 4.07.862 6.104.722 5.336-.519 6.203-1.282 10.92-1.297 8.025 8.164 18.613 13.053 24.362 1.507 1.776 24.757 30.585 14.564 30.344-5.139-.121-13.804-14.734-16.203-19.219-3.687-6.898-6.221-20.68-13.879-24.258-2.406-1.124-4.392.057-6.622-.83-5.207-2.064-8.74-10.217-12.507-14.032-7.666-7.764-17.085-6.685-10.672 5.911 2.54 4.984 3.8 8.31 5.359 13.735 1.78 6.189 7.367 9.378 9.94 14.799 2.124 4.481-1.183 2.084-.991 7.417.16 4.428 7.029 9.273 10.262 11.736 4.489 3.421 24.729 14.887 20.761 21.806-3.617 6.306-15.416-3.202-18.571-6.094-7.892-7.234-11.04-16.999-15.48-26.368-2.163-4.567-4.639-10.11-8.18-13.807-3.105-3.239-6.638-3.682-10.485-5.356-4.48-1.948-24.225-12.336-23.315.217.612 8.434 12.362 12.518 13.83 20.569-5.285-2.355-16.348-13.06-22.646-7.433-6.08 5.434 5.985 17.164 9.66 21.598 2.254 2.718 17.693 14.954 17.433 19.54-.272 4.787-5.812 3.072-9.014 2.437C49.182 144.639.155 132.57.373 142.562c.167 7.748 19.02 5.126 21.455 9.52.896 1.614-1.054 2.401-1.399 4.125-1.262 6.316.831 8.84 7.464 9.532-6.299 15.096 14.556 7.087 21.567 4.679 4.775-1.641 25.095-9.072 26.502 1.124.473 3.428-5.266 8.827-6.244 12.181-1.885 6.469 2.866 10.439 9.107 8.25 4.294-1.503 8.195-5.305 10.95-8.828 1.583-2.02 4.381-8.673 7.023-9.134-.264 10.95 6.124 5.289 11.95.583 4.358-3.519 15.214-13.088 21.691-9.283-5.072 7.039-12.001 12.644-17.541 19.29-6.063 7.28-12.373 14.079-19.366 20.96-13.263 13.046-26.555 27.267-38.224 41.688-5.708 7.053-11.889 13.774-18.007 20.472-2.209 2.414-16.073 13.25-11.215 17.652 6.573 5.954 17.981-16.56 22.672-19.166 22.302-25.366 46.07-49.451 67.687-75.304-.89 2.916.085 11.141 4.494 11.001-1.039 2.397-4.156 6.05-3.432 8.794 1.607 6.071 4.063.601 6.341.957 3.891.61.696 7.627-.024 10.486-3.361 13.327-3.992 27.888-4.858 41.596-.473 7.522 5.849 28.342 16.528 19.43 5.332-4.446 5.883-15.581 6.222-21.814.216-3.932-1.58-14.849 1.148-18.251 4.517 2.387 9.937 13.126 12.837 16.972 6.13 8.136 11.493 13.307 22.144 14.002 25.305 1.653-5.34-27.087-2.286-29.012 2.149-1.354 16.965 11.145 18.925 12.638 4.344 3.308 17.574 11.379 22.431 4.609 4.074-5.679-6.346-15.186-9.438-18.844-2.593-3.068-4.53-7.267-7.776-10.357-2.671-2.541-6.248-3.989-8.892-6.409-2.751-2.515-2.911-6.137-5.977-9.016-3.44-3.235-8.118-5.936-11.905-8.88-6.33-4.92-15.286-11.315-16.027-20.244 14.459 1.796 24.334 17.538 34.206 26.686 4.938 4.575 10.752 10.444 17.903 8.886 2.873-.626-.203-1.186 3.642-1.451.863-.06 2.032.445 2.868.641 5.994 1.411 11.736 3.597 17.68 5.161 3.687.971 15.516 5.287 18.821 1.74 5.993-6.434-19.883-22.599-24.457-26.183-3.46-2.708-7.624-5.025-10.89-7.838-2.998-2.581-4.006-6.025-8.038-7.925-5.22-2.462-11.289-3.306-16.731-5.154-7.32-2.485-13.414-6.13-19.507-10.815-2.523-1.941-8.649-6.116-7.325-9.627 2.131-5.641 11.74 1.567 14.461 3.111 8.061 4.576 15.605 11.869 25.573 14.877 10.31 3.116 15.606 13.248 25.1 17.784 3.43 1.638 5.361 1.793 8.977 1.127 4.023-.737 5.93-1.205 10.657-.002 4.284 1.09 24.955 7.805 23.383-1.836-.51-3.128-5.044-4.419-7.342-5.697-5.063-2.82-9.98-5.929-15.111-8.624-3.258-1.711-7.399-2.891-10.066-5.545-2.53-2.518-3.095-5.079-6.734-6.719-4.899-2.208-12.265-1.852-16.556-4.838-4.093-2.846-7.328-6.934-12.014-9.562-3.729-2.088-24.859-9.911-24.281-13.403 1.172-7.099 24.968 6.468 26.801 7.464 11.679 6.347 23.133 14.81 35.122 20.788 4.03 2.008 7.157 1.26 10.87 1.806 4.931.724 10.083 4.111 15.091 5.284 3.991.935 14.431 3.377 12.393-3.574-1.469-5.022-11.02-9.351-15.013-12.391-4.515-3.435-8.719-7.153-13.609-10.057-1.051-.627-3.369-1.417-4.14-2.281-2.131-2.398-.72-6.049-3.283-8.746 2.691 2.587 5.345 3.929 8.997 3.965.953.012 2.789-1.01 3.986-1.159 3.611-.452 7.864.759 11.481 1.169 5.079.57 30.677-.159 17.492-9.133-5.636-3.836-11.975-6.744-18.251-9.316-4.931-2.023-11.39-3.507-15.546-6.902-4.307-3.52-5.097-5.336-11.358-6.267-6.434-.955-15.512-.766-20.571-5.408-10.304-9.459 24.014-3.11 27.663-2.188 7.372 1.862 15.343 3.322 22.88 1.656 8.404-1.856 15.365-5.841 24.203-6.244 3.942-.178 16.855.226 16.629-6.106-.221-6.236-14.664-6.65-18.496-7.419-3.96-.793-8.459-1.063-12.265-2.223-3.453-1.054-6.089-3.282-9.454-4.581-9.54-3.688-17.646 1.016-27.158.575-5.022-.234-7.416-2.21-2.167-5.796 2.832-1.939 7.381-2.12 10.72-3.058 5.022-1.41 9.966-3.21 14.924-4.838 6.691-2.202 44.257-13.982 34.889-25.98Z" fill="#89B99A"/></svg>